{
	"asset":{
		"generator":"Khronos glTF Blender I/O v3.6.27",
		"version":"2.0"
	},
	"extensionsUsed":[
		"KHR_materials_specular",
		"KHR_materials_ior"
	],
	"scene":0,
	"scenes":[
		{
			"name":"Scene",
			"nodes":[
				0
			]
		}
	],
	"nodes":[
		{
			"mesh":0,
			"name":"Plane",
			"scale":[
				10,
				10,
				10
			]
		}
	],
	"materials":[
		{
			"doubleSided":true,
			"extensions":{
				"KHR_materials_specular":{
					"specularColorFactor":[
						1.4314152618921412,
						1.4314152618921412,
						1.4314152618921412
					]
				},
				"KHR_materials_ior":{
					"ior":1.4500000476837158
				}
			},
			"name":"Metal",
			"pbrMetallicRoughness":{
				"roughnessFactor":0.5932642221450806
			}
		}
	],
	"meshes":[
		{
			"name":"Plane",
			"primitives":[
				{
					"attributes":{
						"POSITION":0,
						"NORMAL":1,
						"TEXCOORD_0":2
					},
					"indices":3,
					"material":0
				}
			]
		}
	],
	"accessors":[
		{
			"bufferView":0,
			"componentType":5126,
			"count":1024,
			"max":[
				1.0069782733917236,
				0.015184035524725914,
				1.004852294921875
			],
			"min":[
				-1.005116581916809,
				-0.011091835796833038,
				-1.008386492729187
			],
			"type":"VEC3"
		},
		{
			"bufferView":1,
			"componentType":5126,
			"count":1024,
			"type":"VEC3"
		},
		{
			"bufferView":2,
			"componentType":5126,
			"count":1024,
			"type":"VEC2"
		},
		{
			"bufferView":3,
			"componentType":5123,
			"count":1536,
			"type":"SCALAR"
		}
	],
	"bufferViews":[
		{
			"buffer":0,
			"byteLength":12288,
			"byteOffset":0,
			"target":34962
		},
		{
			"buffer":0,
			"byteLength":12288,
			"byteOffset":12288,
			"target":34962
		},
		{
			"buffer":0,
			"byteLength":8192,
			"byteOffset":24576,
			"target":34962
		},
		{
			"buffer":0,
			"byteLength":3072,
			"byteOffset":32768,
			"target":34963
		}
	],
	"buffers":[
		{
			"byteLength":35840,
			"uri":"grid.bin"
		}
	]
}
